<svg width="38" height="26" viewBox="0 0 38 26" fill="none" xmlns="http://www.w3.org/2000/svg">
<path d="M13.3633 5.88037C12.318 5.57992 11.5563 5.21175 11.0781 4.77588C10.6042 4.33577 10.3672 3.79411 10.3672 3.15088C10.3672 2.42301 10.6571 1.8221 11.2368 1.34814C11.8208 0.869954 12.5783 0.630859 13.5093 0.630859C14.144 0.630859 14.709 0.753581 15.2041 0.999023C15.7035 1.24447 16.0885 1.58301 16.3594 2.01465C16.6344 2.44629 16.772 2.91813 16.772 3.43018H15.5469C15.5469 2.87158 15.3691 2.43359 15.0137 2.11621C14.6582 1.7946 14.1567 1.63379 13.5093 1.63379C12.9084 1.63379 12.4386 1.76709 12.1001 2.03369C11.7658 2.29606 11.5986 2.66211 11.5986 3.13184C11.5986 3.50846 11.7573 3.82796 12.0747 4.09033C12.3963 4.34847 12.9401 4.58545 13.7061 4.80127C14.4762 5.01709 15.0771 5.25618 15.5088 5.51855C15.9447 5.77669 16.2663 6.07926 16.4736 6.42627C16.6852 6.77327 16.791 7.18164 16.791 7.65137C16.791 8.40039 16.499 9.0013 15.915 9.4541C15.3311 9.90267 14.5503 10.127 13.5728 10.127C12.938 10.127 12.3455 10.0063 11.7954 9.76514C11.2453 9.51969 10.82 9.18538 10.5195 8.76221C10.2233 8.33903 10.0752 7.85872 10.0752 7.32129H11.3003C11.3003 7.87988 11.5055 8.3221 11.916 8.64795C12.3307 8.96956 12.883 9.13037 13.5728 9.13037C14.216 9.13037 14.709 8.99919 15.0518 8.73682C15.3945 8.47445 15.5659 8.11686 15.5659 7.66406C15.5659 7.21126 15.4072 6.86214 15.0898 6.6167C14.7725 6.36702 14.1969 6.12158 13.3633 5.88037ZM21.0249 10.127C20.0939 10.127 19.3364 9.82227 18.7524 9.21289C18.1685 8.59928 17.8765 7.78044 17.8765 6.75635V6.54053C17.8765 5.85921 18.0055 5.25195 18.2637 4.71875C18.526 4.18132 18.89 3.76237 19.3555 3.46191C19.8252 3.15723 20.333 3.00488 20.8789 3.00488C21.7718 3.00488 22.4658 3.29899 22.9609 3.88721C23.4561 4.47542 23.7036 5.31755 23.7036 6.41357V6.90234H19.0508C19.0677 7.57943 19.2645 8.12744 19.6411 8.54639C20.022 8.9611 20.5044 9.16846 21.0884 9.16846C21.5031 9.16846 21.8543 9.08382 22.1421 8.91455C22.4299 8.74528 22.6816 8.521 22.8975 8.2417L23.6147 8.80029C23.0392 9.68473 22.1759 10.127 21.0249 10.127ZM20.8789 3.96973C20.4049 3.96973 20.0072 4.14323 19.6855 4.49023C19.3639 4.83301 19.165 5.31543 19.0889 5.9375H22.5293V5.84863C22.4954 5.25195 22.3346 4.79069 22.0469 4.46484C21.7591 4.13477 21.3698 3.96973 20.8789 3.96973ZM26.6616 1.46875V3.13184H27.9438V4.03955H26.6616V8.29883C26.6616 8.57389 26.7188 8.78125 26.833 8.9209C26.9473 9.05632 27.1419 9.12402 27.417 9.12402C27.5524 9.12402 27.7386 9.09863 27.9756 9.04785V10C27.6667 10.0846 27.3662 10.127 27.0742 10.127C26.5495 10.127 26.1538 9.96826 25.8872 9.65088C25.6206 9.3335 25.4873 8.88281 25.4873 8.29883V4.03955H24.2368V3.13184H25.4873V1.46875H26.6616ZM3.84814 21.6304L6.08252 15.1797H7.21045L4.31006 23H3.39697L0.501953 15.1797H1.62451L3.84814 21.6304ZM7.59717 20.0405C7.59717 19.4712 7.70817 18.9591 7.93018 18.5044C8.15576 18.0496 8.46729 17.6987 8.86475 17.4517C9.26579 17.2046 9.72233 17.0811 10.2344 17.0811C11.0257 17.0811 11.6649 17.355 12.1519 17.9028C12.6424 18.4507 12.8877 19.1794 12.8877 20.0889V20.1587C12.8877 20.7244 12.7785 21.2329 12.5601 21.6841C12.3452 22.1317 12.0355 22.4808 11.6309 22.7314C11.2298 22.9821 10.7679 23.1074 10.2451 23.1074C9.45736 23.1074 8.8182 22.8335 8.32764 22.2856C7.84066 21.7378 7.59717 21.0127 7.59717 20.1104V20.0405ZM8.59619 20.1587C8.59619 20.8032 8.74479 21.3206 9.04199 21.7109C9.34277 22.1012 9.74382 22.2964 10.2451 22.2964C10.75 22.2964 11.151 22.0994 11.4482 21.7056C11.7454 21.3081 11.894 20.7531 11.894 20.0405C11.894 19.4032 11.7419 18.8875 11.4375 18.4937C11.1367 18.0962 10.7357 17.8975 10.2344 17.8975C9.74382 17.8975 9.34814 18.0926 9.04736 18.4829C8.74658 18.8732 8.59619 19.4318 8.59619 20.1587ZM15.2134 23H14.2197V14.75H15.2134V23ZM18.1567 15.7812V17.1885H19.2417V17.9565H18.1567V21.5605C18.1567 21.7933 18.2051 21.9688 18.3018 22.0869C18.3984 22.2015 18.5632 22.2588 18.7959 22.2588C18.9105 22.2588 19.068 22.2373 19.2686 22.1943V23C19.0072 23.0716 18.7529 23.1074 18.5059 23.1074C18.0618 23.1074 17.7271 22.9731 17.5015 22.7046C17.2759 22.436 17.1631 22.0547 17.1631 21.5605V17.9565H16.105V17.1885H17.1631V15.7812H18.1567ZM23.9951 23C23.9378 22.8854 23.8913 22.6813 23.8555 22.3877C23.3936 22.8675 22.8421 23.1074 22.2012 23.1074C21.6283 23.1074 21.1574 22.9463 20.7886 22.624C20.4233 22.2982 20.2407 21.8864 20.2407 21.3887C20.2407 20.7835 20.4699 20.3145 20.9282 19.9814C21.3901 19.6449 22.0382 19.4766 22.8726 19.4766H23.8394V19.02C23.8394 18.6727 23.7355 18.397 23.5278 18.1929C23.3201 17.9852 23.014 17.8813 22.6094 17.8813C22.2549 17.8813 21.9577 17.9709 21.7178 18.1499C21.4779 18.3289 21.3579 18.5456 21.3579 18.7998H20.3589C20.3589 18.5098 20.4609 18.2305 20.665 17.9619C20.8727 17.6898 21.152 17.4749 21.5029 17.3174C21.8574 17.1598 22.2459 17.0811 22.6685 17.0811C23.3381 17.0811 23.8626 17.2493 24.2422 17.5859C24.6217 17.9189 24.8187 18.3791 24.833 18.9663V21.6411C24.833 22.1746 24.901 22.599 25.0371 22.9141V23H23.9951ZM22.3462 22.2427C22.6577 22.2427 22.9531 22.1621 23.2324 22.001C23.5117 21.8398 23.714 21.6304 23.8394 21.3726V20.1802H23.0605C21.8431 20.1802 21.2344 20.5365 21.2344 21.249C21.2344 21.5605 21.3382 21.804 21.5459 21.9795C21.7536 22.1549 22.0203 22.2427 22.3462 22.2427ZM26.1543 20.0459C26.1543 19.14 26.3638 18.4202 26.7827 17.8867C27.2017 17.3496 27.7567 17.0811 28.4478 17.0811C29.1567 17.0811 29.71 17.3317 30.1074 17.833L30.1558 17.1885H31.0635V22.8604C31.0635 23.6123 30.8397 24.2049 30.3921 24.6382C29.9481 25.0715 29.3501 25.2881 28.5981 25.2881C28.1792 25.2881 27.7692 25.1986 27.3682 25.0195C26.9671 24.8405 26.661 24.5952 26.4497 24.2837L26.9653 23.6875C27.3914 24.2139 27.9124 24.4771 28.5283 24.4771C29.0117 24.4771 29.3877 24.341 29.6562 24.0688C29.9284 23.7967 30.0645 23.4136 30.0645 22.9194V22.4199C29.667 22.8783 29.1245 23.1074 28.437 23.1074C27.7567 23.1074 27.2052 22.8335 26.7827 22.2856C26.3638 21.7378 26.1543 20.9912 26.1543 20.0459ZM27.1533 20.1587C27.1533 20.814 27.2876 21.3296 27.5562 21.7056C27.8247 22.078 28.2007 22.2642 28.6841 22.2642C29.3107 22.2642 29.7708 21.9795 30.0645 21.4102V18.7568C29.7601 18.2018 29.3035 17.9243 28.6948 17.9243C28.2114 17.9243 27.8337 18.1123 27.5615 18.4883C27.2894 18.8643 27.1533 19.4211 27.1533 20.1587ZM34.979 23.1074C34.1912 23.1074 33.5503 22.8496 33.0562 22.334C32.562 21.8148 32.3149 21.1219 32.3149 20.2554V20.0728C32.3149 19.4963 32.4242 18.9824 32.6426 18.5312C32.8646 18.0765 33.1725 17.722 33.5664 17.4678C33.9639 17.21 34.3936 17.0811 34.8555 17.0811C35.611 17.0811 36.1982 17.3299 36.6172 17.8276C37.0361 18.3254 37.2456 19.0379 37.2456 19.9653V20.3789H33.3086C33.3229 20.9518 33.4894 21.4155 33.8081 21.77C34.1304 22.1209 34.5386 22.2964 35.0327 22.2964C35.3836 22.2964 35.6808 22.2248 35.9243 22.0815C36.1678 21.9383 36.3809 21.7485 36.5635 21.5122L37.1704 21.9849C36.6834 22.7332 35.953 23.1074 34.979 23.1074ZM34.8555 17.8975C34.4544 17.8975 34.1178 18.0443 33.8457 18.3379C33.5736 18.6279 33.4053 19.0361 33.3408 19.5625H36.252V19.4873C36.2233 18.9824 36.0872 18.5921 35.8438 18.3164C35.6003 18.0371 35.2708 17.8975 34.8555 17.8975Z" fill="black"/>
</svg>
